<svg width="25" height="24" viewBox="0 0 25 24" fill="none" xmlns="http://www.w3.org/2000/svg">
<path d="M21.0537 5.625L4.55371 5.62501" stroke="#FE4E4E" stroke-width="2" stroke-linecap="round" stroke-linejoin="round"/>
<path d="M10.5542 9.75V15.75" stroke="#FE4E4E" stroke-width="2" stroke-linecap="round" stroke-linejoin="round"/>
<path d="M15.0542 9.75V15.75" stroke="#FE4E4E" stroke-width="2" stroke-linecap="round" stroke-linejoin="round"/>
<path d="M19.5542 5.625V19.5C19.5542 19.6989 19.4752 19.8897 19.3345 20.0303C19.1939 20.171 19.0031 20.25 18.8042 20.25H6.8042C6.60529 20.25 6.41452 20.171 6.27387 20.0303C6.13322 19.8897 6.0542 19.6989 6.0542 19.5V5.625" stroke="#FE4E4E" stroke-width="2" stroke-linecap="round" stroke-linejoin="round"/>
<path d="M16.5542 5.625V3.375C16.5542 2.97718 16.3962 2.59564 16.1149 2.31434C15.8336 2.03304 15.452 1.875 15.0542 1.875H10.5542C10.1564 1.875 9.77484 2.03304 9.49354 2.31434C9.21223 2.59564 9.0542 2.97718 9.0542 3.375V5.625" stroke="#FE4E4E" stroke-width="2" stroke-linecap="round" stroke-linejoin="round"/>
</svg>
