<svg width="22" height="20" viewBox="0 0 22 20" fill="none" xmlns="http://www.w3.org/2000/svg">
<path d="M20.2025 0.334671C20.594 0.334671 20.9475 0.500987 21.263 0.833618C21.5786 1.16625 21.7364 1.53888 21.7364 1.95151V8.41888C21.7364 8.85678 21.5846 9.23572 21.281 9.55572C20.9774 9.87572 20.618 10.0357 20.2025 10.0357H18.6687V14.8862L14.0193 10.0357H9.4657C9.06627 10.0357 8.71077 9.87151 8.39921 9.54309C8.08765 9.21467 7.93187 8.83993 7.93187 8.41888V1.95151C7.93187 1.53046 8.08765 1.15572 8.39921 0.827303C8.71077 0.498882 9.06627 0.334671 9.4657 0.334671H20.2025ZM6.39803 8.41888C6.40602 9.23572 6.72557 9.97678 7.35668 10.642C7.96382 11.282 8.66683 11.6189 9.4657 11.6526H14.0672V13.2694C14.0672 13.682 13.9174 14.0547 13.6178 14.3873C13.3183 14.7199 12.9728 14.8862 12.5813 14.8862H7.9798L3.33036 19.7368V14.8862H1.79653C1.39709 14.8862 1.0416 14.722 0.730035 14.3936C0.418475 14.0652 0.262695 13.6905 0.262695 13.2694V6.80204C0.262695 6.38099 0.418475 6.00625 0.730035 5.67783C1.0416 5.34941 1.39709 5.1852 1.79653 5.1852H6.39803V8.41888Z" fill="white"/>
</svg>
