<svg width="18" height="18" viewBox="0 0 18 18" fill="none" xmlns="http://www.w3.org/2000/svg">
<path d="M9 12.375C10.864 12.375 12.375 10.864 12.375 9C12.375 7.13604 10.864 5.625 9 5.625C7.13604 5.625 5.625 7.13604 5.625 9C5.625 10.864 7.13604 12.375 9 12.375Z" stroke="#4F4F4F" stroke-width="1.5" stroke-linecap="round" stroke-linejoin="round"/>
<path d="M12.9167 4.57715C13.0948 4.74121 13.2636 4.90996 13.4229 5.0834L15.3425 5.35762C15.6552 5.90079 15.8963 6.48219 16.0597 7.08731L14.8925 8.64121C14.8925 8.64121 14.9136 9.11934 14.8925 9.3584L16.0597 10.9123C15.8971 11.5177 15.656 12.0992 15.3425 12.642L13.4229 12.9162C13.4229 12.9162 13.0925 13.2607 12.9167 13.4225L12.6425 15.342C12.0993 15.6548 11.5179 15.8958 10.9128 16.0592L9.35889 14.892C9.12029 14.9131 8.8803 14.9131 8.6417 14.892L7.08779 16.0592C6.48242 15.8966 5.90092 15.6555 5.35811 15.342L5.08389 13.4225C4.91045 13.2584 4.7417 13.0896 4.57764 12.9162L2.65811 12.642C2.34534 12.0988 2.10427 11.5174 1.94092 10.9123L3.10811 9.3584C3.10811 9.3584 3.08701 8.88027 3.10811 8.64121L1.94092 7.08731C2.10352 6.48193 2.34463 5.90043 2.65811 5.35762L4.57764 5.0834C4.7417 4.90996 4.91045 4.74121 5.08389 4.57715L5.35811 2.65762C5.90127 2.34485 6.48268 2.10379 7.08779 1.94043L8.6417 3.10762C8.8803 3.08652 9.12029 3.08652 9.35889 3.10762L10.9128 1.94043C11.5182 2.10303 12.0997 2.34414 12.6425 2.65762L12.9167 4.57715Z" stroke="#4F4F4F" stroke-width="1.5" stroke-linecap="round" stroke-linejoin="round"/>
</svg>
