<svg width="58" height="55" viewBox="0 0 58 55" fill="none" xmlns="http://www.w3.org/2000/svg">
<path d="M38.3294 19.4231C36.7713 18.5256 35.2782 17.5 33.85 16.3462C32.4217 15.1923 31.7076 14.0385 31.7076 12.8846C31.7076 11.7308 33.4604 9.42308 36.9661 5.96154C37.2258 5.70513 37.875 4.93591 38.9137 3.65386C40.8613 1.21795 42.5492 0 43.9774 0C45.4056 0 47.0286 0.641029 48.8464 1.92309C50.7939 3.20514 52.8064 5.64103 54.8839 9.23078C56.9613 12.6923 58 16.9872 58 22.1154C58 27.1154 57.0911 31.9231 55.2734 36.5385C53.4556 41.1539 51.2484 44.6795 48.6516 47.1154C43.458 52.3718 39.498 55 36.7713 55C36.1221 55 35.5379 54.7436 35.0185 54.2308C34.4992 53.5898 34.2395 53.0128 34.2395 52.5C34.2395 51.859 34.8237 51.0897 35.9923 50.1923C37.1609 49.1667 38.3943 48.141 39.6927 47.1154C40.9911 45.9615 42.2246 44.1667 43.3931 41.7308C44.5617 39.2949 45.146 36.4103 45.146 33.0769C45.146 29.6154 44.4318 26.7308 43.0036 24.4231C41.5754 21.9872 40.0173 20.3205 38.3294 19.4231ZM6.62179 19.4231C5.06372 18.5256 3.57057 17.5 2.14234 16.3462C0.714114 15.1923 0 14.0385 0 12.8846C0 11.7308 1.75283 9.42308 5.25848 5.96154C5.51815 5.70513 6.23227 4.93591 7.40082 3.65386C9.21856 1.21795 11.1012 0 13.0488 0C14.2174 0 15.7105 0.833334 17.5283 2.5C19.346 4.03847 20.8391 5.57693 22.0077 7.11538C24.7343 10.7051 26.0976 15.3846 26.0976 21.1538C26.0976 26.7949 25.1888 31.9231 23.371 36.5385C21.5533 41.1539 19.4109 44.6795 16.944 47.1154C11.8803 52.3718 7.92017 55 5.06372 55C4.41452 55 3.83025 54.7436 3.31089 54.2308C2.79154 53.5898 2.53186 53.0128 2.53186 52.5C2.53186 51.859 3.05122 51.0897 4.08993 50.1923C5.25848 49.1667 6.55687 48.141 7.98509 47.1154C9.41332 45.9615 10.6468 44.1667 11.6855 41.7308C12.8541 39.2949 13.4383 36.4103 13.4383 33.0769C13.4383 29.6154 12.7242 26.7308 11.296 24.4231C9.86776 21.9872 8.30969 20.3205 6.62179 19.4231Z" fill="white" fill-opacity="0.7"/>
</svg>
