<svg width="22" height="19" viewBox="0 0 22 19" fill="none" xmlns="http://www.w3.org/2000/svg">
<path d="M14.4667 16.542C14.0667 16.0105 13.7333 15.3019 13.4667 14.4161C13.2 13.5303 13.0667 12.3788 13.0667 10.9615C13.0667 9.5 13.3778 7.97203 14 6.37762C14.6222 4.78322 15.3556 3.56527 16.2 2.72378C17.9333 0.907927 19.2889 0 20.2667 0C20.4889 0 20.6889 0.110724 20.8667 0.332172C21.0444 0.509325 21.1333 0.708626 21.1333 0.930071C21.1333 1.10723 20.9333 1.37296 20.5333 1.72727C20.1333 2.0373 19.7111 2.36947 19.2667 2.72378C18.8222 3.07809 18.4 3.67599 18 4.51748C17.6 5.35897 17.4 6.37762 17.4 7.57343C17.4 8.72494 17.6444 9.72145 18.1333 10.5629C18.6222 11.3601 19.1333 11.9138 19.6667 12.2238C21.2222 13.0653 22 13.9068 22 14.7483C22 15.014 21.6667 15.479 21 16.1434C20.3778 16.7634 19.8889 17.2949 19.5333 17.7378C18.8667 18.5793 18.2 19 17.5333 19C17.1333 19 16.6222 18.7343 16 18.2028C15.3778 17.627 14.8667 17.0734 14.4667 16.542ZM3.06667 18.3357C2.44444 17.8928 1.77778 17.0734 1.06667 15.8776C0.355556 14.6375 0 13.1538 0 11.4266C0 9.65501 0.311111 7.97203 0.933333 6.37762C1.55556 4.78322 2.28889 3.56527 3.13333 2.72378C4.95556 0.907927 6.33333 0 7.26667 0C7.48889 0 7.68889 0.110724 7.86667 0.332172C8.04444 0.509325 8.13333 0.708626 8.13333 0.930071C8.13333 1.10723 7.93333 1.37296 7.53333 1.72727C7.17778 2.0373 6.75556 2.36947 6.26667 2.72378C5.77778 3.07809 5.33333 3.67599 4.93333 4.51748C4.57778 5.35897 4.4 6.37762 4.4 7.57343C4.4 8.72494 4.64445 9.72145 5.13333 10.5629C5.62222 11.3601 6.15556 11.9138 6.73333 12.2238C8.24444 13.0653 9 13.9068 9 14.7483C9 15.014 8.66667 15.479 8 16.1434C7.37778 16.7634 6.86667 17.2949 6.46667 17.7378C5.84444 18.5793 5.28889 19 4.8 19C4.31111 19 3.73333 18.7786 3.06667 18.3357Z" fill="#555555"/>
</svg>
